Saira-PARAMETRIC-JUN_YOPQ-max.ufo
<glyph name="A" format="2">
  <advance width="774"/>
  <unicode hex="0041"/>
  <anchor x="387" y="0" name="bottom"/>
  <anchor x="695" y="10" name="ogonek"/>
  <anchor x="387" y="688" name="top"/>
  <outline>
    <contour>
      <point x="10" y="0" type="line"/>
      <point x="247" y="0" type="line"/>
      <point x="458" y="570" type="line"/>
      <point x="464" y="570" type="line"/>
      <point x="676" y="0" type="line"/>
      <point x="764" y="0" type="line"/>
      <point x="498" y="688" type="line"/>
      <point x="275" y="688" type="line"/>
    </contour>
    <contour>
      <point x="179" y="126" type="line"/>
      <point x="667" y="126" type="line"/>
      <point x="590" y="326" type="line"/>
      <point x="254" y="326" type="line"/>
    </contour>
  </outline>
</glyph>
<glyph name="B" format="2">
  <advance width="699"/>
  <unicode hex="0042"/>
  <anchor x="341" y="0" name="bottom"/>
  <anchor x="341" y="688" name="top"/>
  <outline>
    <contour>
      <point x="100" y="0" type="line"/>
      <point x="366" y="0" type="line" smooth="yes"/>
      <point x="561" y="0"/>
      <point x="614" y="38"/>
      <point x="614" y="180" type="curve" smooth="yes"/>
      <point x="614" y="187" type="line" smooth="yes"/>
      <point x="614" y="333"/>
      <point x="560" y="375"/>
      <point x="366" y="375" type="curve" smooth="yes"/>
      <point x="166" y="375" type="line"/>
      <point x="166" y="260" type="line"/>
      <point x="416" y="260" type="line" smooth="yes"/>
      <point x="515" y="260"/>
      <point x="532" y="255"/>
      <point x="532" y="225" type="curve" smooth="yes"/>
      <point x="532" y="214" type="line" smooth="yes"/>
      <point x="532" y="185"/>
      <point x="515" y="180"/>
      <point x="416" y="180" type="curve" smooth="yes"/>
      <point x="145" y="180" type="line"/>
      <point x="182" y="43" type="line"/>
      <point x="182" y="645" type="line"/>
      <point x="145" y="508" type="line"/>
      <point x="402" y="508" type="line" smooth="yes"/>
      <point x="501" y="508"/>
      <point x="518" y="504"/>
      <point x="518" y="479" type="curve" smooth="yes"/>
      <point x="518" y="469" type="line" smooth="yes"/>
      <point x="518" y="444"/>
      <point x="501" y="440"/>
      <point x="402" y="440" type="curve" smooth="yes"/>
      <point x="166" y="440" type="line"/>
      <point x="166" y="325" type="line"/>
      <point x="352" y="325" type="line" smooth="yes"/>
      <point x="546" y="325"/>
      <point x="600" y="366"/>
      <point x="600" y="507" type="curve" smooth="yes"/>
      <point x="600" y="514" type="line" smooth="yes"/>
      <point x="600" y="651"/>
      <point x="547" y="688"/>
      <point x="352" y="688" type="curve" smooth="yes"/>
      <point x="100" y="688" type="line"/>
    </contour>
  </outline>
</glyph>
<glyph name="C" format="2">
  <advance width="645"/>
  <unicode hex="0043"/>
  <anchor x="286" y="0" name="bottom"/>
  <anchor x="286" y="688" name="top"/>
  <outline>
    <contour>
      <point x="372" y="-8" type="curve" smooth="yes"/>
      <point x="434" y="-8"/>
      <point x="508" y="-3"/>
      <point x="550" y="5" type="curve"/>
      <point x="550" y="182" type="line"/>
      <point x="509" y="176"/>
      <point x="439" y="172"/>
      <point x="372" y="172" type="curve" smooth="yes"/>
      <point x="172" y="172"/>
      <point x="158" y="189"/>
      <point x="158" y="310" type="curve" smooth="yes"/>
      <point x="158" y="378" type="line" smooth="yes"/>
      <point x="158" y="499"/>
      <point x="172" y="516"/>
      <point x="372" y="516" type="curve" smooth="yes"/>
      <point x="436" y="516"/>
      <point x="498" y="512"/>
      <point x="546" y="506" type="curve"/>
      <point x="546" y="681" type="line"/>
      <point x="505" y="690"/>
      <point x="432" y="696"/>
      <point x="372" y="696" type="curve" smooth="yes"/>
      <point x="121" y="696"/>
      <point x="76" y="644"/>
      <point x="76" y="349" type="curve" smooth="yes"/>
      <point x="76" y="339" type="line" smooth="yes"/>
      <point x="76" y="44"/>
      <point x="121" y="-8"/>
    </contour>
  </outline>
</glyph>
<glyph name="D" format="2">
  <advance width="680"/>
  <unicode hex="0044"/>
  <anchor x="343" y="0" name="bottom"/>
  <anchor x="183" y="344" name="center"/>
  <anchor x="343" y="688" name="top"/>
  <outline>
    <contour>
      <point x="100" y="0" type="line"/>
      <point x="326" y="0" type="line" smooth="yes"/>
      <point x="562" y="0"/>
      <point x="604" y="51"/>
      <point x="604" y="339" type="curve" smooth="yes"/>
      <point x="604" y="349" type="line" smooth="yes"/>
      <point x="604" y="637"/>
      <point x="562" y="688"/>
      <point x="326" y="688" type="curve" smooth="yes"/>
      <point x="100" y="688" type="line"/>
    </contour>
    <contour>
      <point x="182" y="162" type="line"/>
      <point x="182" y="525" type="line"/>
      <point x="145" y="508" type="line"/>
      <point x="326" y="508" type="line" smooth="yes"/>
      <point x="507" y="508"/>
      <point x="522" y="499"/>
      <point x="522" y="377" type="curve" smooth="yes"/>
      <point x="522" y="311" type="line" smooth="yes"/>
      <point x="522" y="189"/>
      <point x="507" y="180"/>
      <point x="326" y="180" type="curve" smooth="yes"/>
      <point x="145" y="180" type="line"/>
    </contour>
  </outline>
</glyph>
<glyph name="E" format="2">
  <advance width="629"/>
  <unicode hex="0045"/>
  <anchor x="308" y="0" name="bottom"/>
  <anchor x="537" y="10" name="ogonek"/>
  <anchor x="308" y="688" name="top"/>
  <anchor x="42" y="688" name="topleft"/>
  <outline>
    <contour>
      <point x="145" y="438" type="line"/>
      <point x="145" y="258" type="line"/>
      <point x="532" y="258" type="line"/>
      <point x="532" y="438" type="line"/>
    </contour>
    <contour>
      <point x="182" y="100" type="line"/>
      <point x="182" y="588" type="line"/>
      <point x="145" y="508" type="line"/>
      <point x="579" y="508" type="line"/>
      <point x="579" y="688" type="line"/>
      <point x="100" y="688" type="line"/>
      <point x="100" y="0" type="line"/>
      <point x="579" y="0" type="line"/>
      <point x="579" y="180" type="line"/>
      <point x="145" y="180" type="line"/>
    </contour>
  </outline>
</glyph>
<glyph name="F" format="2">
  <advance width="609"/>
  <unicode hex="0046"/>
  <anchor x="299" y="0" name="bottom"/>
  <anchor x="299" y="688" name="top"/>
  <outline>
    <contour>
      <point x="145" y="398" type="line"/>
      <point x="145" y="218" type="line"/>
      <point x="522" y="218" type="line"/>
      <point x="522" y="398" type="line"/>
    </contour>
    <contour>
      <point x="182" y="0" type="line"/>
      <point x="182" y="588" type="line"/>
      <point x="145" y="508" type="line"/>
      <point x="569" y="508" type="line"/>
      <point x="569" y="688" type="line"/>
      <point x="100" y="688" type="line"/>
      <point x="100" y="0" type="line"/>
    </contour>
  </outline>
</glyph>
<glyph name="J" format="2">
  <advance width="319"/>
  <unicode hex="004A"/>
  <anchor x="149" y="0" name="bottom"/>
  <anchor x="149" y="688" name="top"/>
  <outline>
    <contour>
      <point x="219" y="688" type="line"/>
      <point x="137" y="688" type="line"/>
      <point x="137" y="271" type="line" smooth="yes"/>
      <point x="137" y="191"/>
      <point x="116" y="176"/>
      <point x="5" y="176" type="curve"/>
      <point x="5" y="-4" type="line"/>
      <point x="172" y="-4"/>
      <point x="219" y="57"/>
      <point x="219" y="278" type="curve" smooth="yes"/>
    </contour>
  </outline>
</glyph>
<glyph name="K" format="2">
  <advance width="719"/>
  <unicode hex="004B"/>
  <anchor x="340" y="0" name="bottom"/>
  <anchor x="340" y="688" name="top"/>
  <outline>
    <contour>
      <point x="177" y="260" type="line"/>
      <point x="417" y="260" type="line"/>
      <point x="606" y="0" type="line"/>
      <point x="709" y="0" type="line"/>
      <point x="453" y="350" type="line"/>
      <point x="699" y="688" type="line"/>
      <point x="423" y="688" type="line"/>
      <point x="242" y="440" type="line"/>
      <point x="177" y="440" type="line"/>
    </contour>
    <contour>
      <point x="100" y="0" type="line"/>
      <point x="182" y="0" type="line"/>
      <point x="182" y="688" type="line"/>
      <point x="100" y="688" type="line"/>
    </contour>
  </outline>
</glyph>
<glyph name="L" format="2">
  <advance width="577"/>
  <unicode hex="004C"/>
  <anchor x="286" y="0" name="bottom"/>
  <anchor x="286" y="344" name="center"/>
  <anchor x="286" y="688" name="top"/>
  <anchor x="530" y="688" name="topright"/>
  <outline>
    <contour>
      <point x="100" y="0" type="line"/>
      <point x="557" y="0" type="line"/>
      <point x="557" y="180" type="line"/>
      <point x="145" y="180" type="line"/>
      <point x="182" y="100" type="line"/>
      <point x="182" y="688" type="line"/>
      <point x="100" y="688" type="line"/>
    </contour>
  </outline>
</glyph>
<glyph name="M" format="2">
  <advance width="964"/>
  <unicode hex="004D"/>
  <guideline x="481" y="232" angle="290.9466" name=""/>
  <guideline x="481" y="232" angle="68.946" name=""/>
  <outline>
    <contour>
      <point x="100" y="0" type="line"/>
      <point x="330" y="0" type="line"/>
      <point x="330" y="465" type="line"/>
      <point x="508" y="0" type="line"/>
      <point x="603" y="0" type="line"/>
      <point x="782" y="465" type="line"/>
      <point x="782" y="0" type="line"/>
      <point x="864" y="0" type="line"/>
      <point x="864" y="688" type="line"/>
      <point x="658" y="688" type="line"/>
      <point x="481" y="232" type="line"/>
      <point x="306" y="688" type="line"/>
      <point x="100" y="688" type="line"/>
    </contour>
  </outline>
</glyph>
<glyph name="N" format="2">
  <advance width="1010"/>
  <unicode hex="004E"/>
  <anchor x="631" y="0" name="bottom"/>
  <anchor x="631" y="688" name="top"/>
  <outline>
    <contour>
      <point x="100" y="0" type="line"/>
      <point x="330" y="0" type="line"/>
      <point x="330" y="543" type="line"/>
      <point x="675" y="0" type="line"/>
      <point x="910" y="0" type="line"/>
      <point x="910" y="688" type="line"/>
      <point x="680" y="688" type="line"/>
      <point x="680" y="145" type="line"/>
      <point x="335" y="688" type="line"/>
      <point x="100" y="688" type="line"/>
    </contour>
  </outline>
</glyph>
<glyph name="O" format="2">
  <advance width="708"/>
  <unicode hex="004F"/>
  <anchor x="354" y="-2" name="bottom"/>
  <anchor x="354" y="344" name="center"/>
  <anchor x="624" y="10" name="ogonek"/>
  <anchor x="354" y="688" name="top"/>
  <anchor x="36" y="688" name="topleft"/>
  <anchor x="672" y="688" name="topright"/>
  <outline>
    <contour>
      <point x="354" y="-8" type="curve" smooth="yes"/>
      <point x="590" y="-8"/>
      <point x="632" y="44"/>
      <point x="632" y="339" type="curve" smooth="yes"/>
      <point x="632" y="349" type="line" smooth="yes"/>
      <point x="632" y="644"/>
      <point x="590" y="696"/>
      <point x="354" y="696" type="curve" smooth="yes"/>
      <point x="118" y="696"/>
      <point x="76" y="644"/>
      <point x="76" y="349" type="curve" smooth="yes"/>
      <point x="76" y="339" type="line" smooth="yes"/>
      <point x="76" y="44"/>
      <point x="118" y="-8"/>
    </contour>
    <contour>
      <point x="354" y="172" type="curve" smooth="yes"/>
      <point x="171" y="172"/>
      <point x="158" y="184"/>
      <point x="158" y="325" type="curve" smooth="yes"/>
      <point x="158" y="363" type="line" smooth="yes"/>
      <point x="158" y="504"/>
      <point x="171" y="516"/>
      <point x="354" y="516" type="curve" smooth="yes"/>
      <point x="537" y="516"/>
      <point x="550" y="504"/>
      <point x="550" y="363" type="curve" smooth="yes"/>
      <point x="550" y="325" type="line" smooth="yes"/>
      <point x="550" y="184"/>
      <point x="537" y="172"/>
    </contour>
  </outline>
</glyph>
<glyph name="P" format="2">
  <advance width="585"/>
  <unicode hex="0050"/>
  <anchor x="300" y="0" name="bottom"/>
  <anchor x="300" y="688" name="top"/>
  <outline>
    <contour>
      <point x="100" y="0" type="line"/>
      <point x="182" y="0" type="line"/>
      <point x="182" y="541" type="line"/>
      <point x="145" y="508" type="line"/>
      <point x="377" y="508" type="line" smooth="yes"/>
      <point x="464" y="508"/>
      <point x="473" y="502"/>
      <point x="473" y="442" type="curve" smooth="yes"/>
      <point x="473" y="430" type="line" smooth="yes"/>
      <point x="473" y="370"/>
      <point x="464" y="364"/>
      <point x="377" y="364" type="curve" smooth="yes"/>
      <point x="166" y="364" type="line"/>
      <point x="166" y="184" type="line"/>
      <point x="307" y="184" type="line" smooth="yes"/>
      <point x="501" y="184"/>
      <point x="555" y="239"/>
      <point x="555" y="433" type="curve" smooth="yes"/>
      <point x="555" y="439" type="line" smooth="yes"/>
      <point x="555" y="633"/>
      <point x="501" y="688"/>
      <point x="307" y="688" type="curve" smooth="yes"/>
      <point x="100" y="688" type="line"/>
    </contour>
  </outline>
</glyph>
<glyph name="R" format="2">
  <advance width="640"/>
  <unicode hex="0052"/>
  <anchor x="324" y="0" name="bottom"/>
  <anchor x="324" y="688" name="top"/>
  <outline>
    <contour>
      <point x="100" y="0" type="line"/>
      <point x="182" y="0" type="line"/>
      <point x="182" y="541" type="line"/>
      <point x="145" y="508" type="line"/>
      <point x="387" y="508" type="line" smooth="yes"/>
      <point x="474" y="508"/>
      <point x="483" y="502"/>
      <point x="483" y="447" type="curve" smooth="yes"/>
      <point x="483" y="435" type="line" smooth="yes"/>
      <point x="483" y="378"/>
      <point x="474" y="374"/>
      <point x="387" y="374" type="curve" smooth="yes"/>
      <point x="166" y="374" type="line"/>
      <point x="166" y="194" type="line"/>
      <point x="317" y="194" type="line" smooth="yes"/>
      <point x="511" y="194"/>
      <point x="565" y="248"/>
      <point x="565" y="438" type="curve" smooth="yes"/>
      <point x="565" y="444" type="line" smooth="yes"/>
      <point x="565" y="634"/>
      <point x="511" y="688"/>
      <point x="317" y="688" type="curve" smooth="yes"/>
      <point x="100" y="688" type="line"/>
    </contour>
    <contour>
      <point x="486" y="0" type="line"/>
      <point x="575" y="0" type="line"/>
      <point x="470" y="259" type="line"/>
      <point x="384" y="259" type="line"/>
    </contour>
  </outline>
</glyph>
<glyph name="S" format="2">
  <advance width="636"/>
  <unicode hex="0053"/>
  <anchor x="318" y="0" name="bottom"/>
  <anchor x="318" y="688" name="top"/>
  <outline>
    <contour>
      <point x="323" y="-8" type="curve" smooth="yes"/>
      <point x="508" y="-8"/>
      <point x="565" y="45"/>
      <point x="565" y="218" type="curve" smooth="yes"/>
      <point x="565" y="346"/>
      <point x="529" y="392"/>
      <point x="418" y="405" type="curve" smooth="yes"/>
      <point x="236" y="425" type="line" smooth="yes"/>
      <point x="167" y="433"/>
      <point x="153" y="441"/>
      <point x="153" y="471" type="curve" smooth="yes"/>
      <point x="153" y="509"/>
      <point x="178" y="516"/>
      <point x="309" y="516" type="curve" smooth="yes"/>
      <point x="374" y="516"/>
      <point x="464" y="509"/>
      <point x="537" y="499" type="curve"/>
      <point x="537" y="677" type="line"/>
      <point x="458" y="688"/>
      <point x="369" y="696"/>
      <point x="313" y="696" type="curve" smooth="yes"/>
      <point x="129" y="696"/>
      <point x="71" y="643"/>
      <point x="71" y="476" type="curve" smooth="yes"/>
      <point x="71" y="352"/>
      <point x="109" y="302"/>
      <point x="216" y="289" type="curve" smooth="yes"/>
      <point x="398" y="269" type="line" smooth="yes"/>
      <point x="471" y="261"/>
      <point x="483" y="254"/>
      <point x="483" y="221" type="curve" smooth="yes"/>
      <point x="483" y="180"/>
      <point x="457" y="172"/>
      <point x="325" y="172" type="curve" smooth="yes"/>
      <point x="254" y="172"/>
      <point x="156" y="179"/>
      <point x="77" y="189" type="curve"/>
      <point x="77" y="11" type="line"/>
      <point x="165" y="-1"/>
      <point x="262" y="-8"/>
    </contour>
  </outline>
</glyph>
<glyph name="T" format="2">
  <advance width="558"/>
  <unicode hex="0054"/>
  <anchor x="279" y="0" name="bottom"/>
  <anchor x="279" y="344" name="center"/>
  <anchor x="279" y="688" name="top"/>
  <outline>
    <contour>
      <point x="238" y="0" type="line"/>
      <point x="320" y="0" type="line"/>
      <point x="320" y="585" type="line"/>
      <point x="285" y="508" type="line"/>
      <point x="548" y="508" type="line"/>
      <point x="548" y="688" type="line"/>
      <point x="10" y="688" type="line"/>
      <point x="10" y="508" type="line"/>
      <point x="273" y="508" type="line"/>
      <point x="238" y="585" type="line"/>
    </contour>
  </outline>
</glyph>
<glyph name="U" format="2">
  <advance width="852"/>
  <unicode hex="0055"/>
  <anchor x="426" y="0" name="bottom"/>
  <anchor x="750" y="10" name="ogonek"/>
  <anchor x="426" y="688" name="top"/>
  <anchor x="811" y="688" name="topright"/>
  <outline>
    <contour>
      <point x="426" y="-8" type="curve" smooth="yes"/>
      <point x="678" y="-8"/>
      <point x="757" y="91"/>
      <point x="757" y="403" type="curve" smooth="yes"/>
      <point x="757" y="688" type="line"/>
      <point x="527" y="688" type="line"/>
      <point x="527" y="323" type="line" smooth="yes"/>
      <point x="527" y="192"/>
      <point x="504" y="172"/>
      <point x="352" y="172" type="curve" smooth="yes"/>
      <point x="200" y="172"/>
      <point x="177" y="203"/>
      <point x="177" y="403" type="curve" smooth="yes"/>
      <point x="177" y="688" type="line"/>
      <point x="95" y="688" type="line"/>
      <point x="95" y="432" type="line" smooth="yes"/>
      <point x="95" y="79"/>
      <point x="161" y="-8"/>
    </contour>
  </outline>
</glyph>
<glyph name="V" format="2">
  <advance width="726"/>
  <unicode hex="0056"/>
  <outline>
    <contour>
      <point x="246" y="0" type="line"/>
      <point x="470" y="0" type="line"/>
      <point x="716" y="688" type="line"/>
      <point x="483" y="688" type="line"/>
      <point x="290" y="118" type="line"/>
      <point x="97" y="688" type="line"/>
      <point x="10" y="688" type="line"/>
    </contour>
  </outline>
</glyph>
<glyph name="W" format="2">
  <advance width="892"/>
  <unicode hex="0057"/>
  <outline>
    <contour>
      <point x="139" y="0" type="line"/>
      <point x="358" y="0" type="line"/>
      <point x="437" y="490" type="line"/>
      <point x="534" y="0" type="line"/>
      <point x="753" y="0" type="line"/>
      <point x="882" y="688" type="line"/>
      <point x="660" y="688" type="line"/>
      <point x="573" y="223" type="line"/>
      <point x="478" y="688" type="line"/>
      <point x="274" y="688" type="line"/>
      <point x="188" y="173" type="line"/>
      <point x="92" y="688" type="line"/>
      <point x="10" y="688" type="line"/>
    </contour>
  </outline>
</glyph>
<glyph name="X" format="2">
  <advance width="697"/>
  <unicode hex="0058"/>
  <anchor x="288" y="0" name="bottom"/>
  <anchor x="288" y="510" name="top"/>
  <outline>
    <contour>
      <point x="571" y="0" type="line"/>
      <point x="677" y="0" type="line"/>
      <point x="136" y="688" type="line"/>
      <point x="30" y="688" type="line"/>
    </contour>
    <contour>
      <point x="20" y="0" type="line"/>
      <point x="280" y="0" type="line"/>
      <point x="667" y="688" type="line"/>
      <point x="407" y="688" type="line"/>
    </contour>
  </outline>
</glyph>
<glyph name="Y" format="2">
  <advance width="704"/>
  <unicode hex="0059"/>
  <anchor x="251" y="0" name="bottom"/>
  <anchor x="251" y="688" name="top"/>
  <anchor x="-42" y="688" name="topleft"/>
  <outline>
    <contour>
      <point x="311" y="0" type="line"/>
      <point x="393" y="0" type="line"/>
      <point x="393" y="300" type="line"/>
      <point x="368" y="231" type="line"/>
      <point x="694" y="688" type="line"/>
      <point x="433" y="688" type="line"/>
      <point x="273" y="451" type="line"/>
      <point x="108" y="688" type="line"/>
      <point x="10" y="688" type="line"/>
      <point x="336" y="231" type="line"/>
      <point x="311" y="300" type="line"/>
    </contour>
  </outline>
</glyph>
<glyph name="a" format="2">
  <advance width="586"/>
  <unicode hex="0061"/>
  <anchor x="293" y="0" name="bottom"/>
  <anchor x="527" y="10" name="ogonek"/>
  <anchor x="293" y="510" name="top"/>
  <outline>
    <contour>
      <point x="236" y="-8" type="curve" smooth="yes"/>
      <point x="331" y="-8"/>
      <point x="384" y="17"/>
      <point x="408" y="73" type="curve"/>
      <point x="412" y="73" type="line"/>
      <point x="421" y="0" type="line"/>
      <point x="491" y="0" type="line"/>
      <point x="491" y="259" type="line" smooth="yes"/>
      <point x="491" y="469"/>
      <point x="452" y="518"/>
      <point x="285" y="518" type="curve" smooth="yes"/>
      <point x="218" y="518"/>
      <point x="158" y="513"/>
      <point x="89" y="503" type="curve"/>
      <point x="89" y="345" type="line"/>
      <point x="149" y="354"/>
      <point x="211" y="358"/>
      <point x="285" y="358" type="curve" smooth="yes"/>
      <point x="401" y="358"/>
      <point x="409" y="352"/>
      <point x="409" y="268" type="curve" smooth="yes"/>
      <point x="409" y="248" type="line" smooth="yes"/>
      <point x="409" y="170"/>
      <point x="382" y="152"/>
      <point x="258" y="152" type="curve" smooth="yes"/>
      <point x="160" y="152"/>
      <point x="145" y="158"/>
      <point x="145" y="184" type="curve" smooth="yes"/>
      <point x="145" y="209"/>
      <point x="167" y="215"/>
      <point x="258" y="215" type="curve" smooth="yes"/>
      <point x="421" y="215" type="line"/>
      <point x="421" y="305" type="line"/>
      <point x="241" y="305" type="line" smooth="yes"/>
      <point x="110" y="305"/>
      <point x="63" y="268"/>
      <point x="63" y="164" type="curve" smooth="yes"/>
      <point x="63" y="40"/>
      <point x="111" y="-8"/>
    </contour>
  </outline>
</glyph>
<glyph name="b" format="2">
  <advance width="620"/>
  <unicode hex="0062"/>
  <anchor x="310" y="0" name="bottom"/>
  <anchor x="155" y="594" name="center"/>
  <anchor x="310" y="510" name="top"/>
  <outline>
    <contour>
      <point x="369" y="-8" type="curve" smooth="yes"/>
      <point x="516" y="-8"/>
      <point x="550" y="42"/>
      <point x="550" y="251" type="curve" smooth="yes"/>
      <point x="550" y="259" type="line" smooth="yes"/>
      <point x="550" y="468"/>
      <point x="516" y="518"/>
      <point x="369" y="518" type="curve" smooth="yes"/>
      <point x="268" y="518"/>
      <point x="212" y="496"/>
      <point x="187" y="447" type="curve"/>
      <point x="182" y="447" type="line"/>
      <point x="182" y="743" type="line"/>
      <point x="100" y="743" type="line"/>
      <point x="100" y="0" type="line"/>
      <point x="169" y="0" type="line"/>
      <point x="182" y="63" type="line"/>
      <point x="187" y="63" type="line"/>
      <point x="212" y="14"/>
      <point x="268" y="-8"/>
    </contour>
    <contour>
      <point x="344" y="172" type="curve" smooth="yes"/>
      <point x="209" y="172"/>
      <point x="182" y="187"/>
      <point x="182" y="251" type="curve" smooth="yes"/>
      <point x="182" y="259" type="line" smooth="yes"/>
      <point x="182" y="323"/>
      <point x="209" y="338"/>
      <point x="344" y="338" type="curve" smooth="yes"/>
      <point x="453" y="338"/>
      <point x="468" y="328"/>
      <point x="468" y="272" type="curve" smooth="yes"/>
      <point x="468" y="238" type="line" smooth="yes"/>
      <point x="468" y="182"/>
      <point x="453" y="172"/>
    </contour>
  </outline>
</glyph>
<glyph name="c" format="2">
  <advance width="508"/>
  <unicode hex="0063"/>
  <anchor x="236" y="0" name="bottom"/>
  <anchor x="236" y="510" name="top"/>
  <outline>
    <contour>
      <point x="307" y="-8" type="curve" smooth="yes"/>
      <point x="362" y="-8"/>
      <point x="427" y="-2"/>
      <point x="466" y="7" type="curve"/>
      <point x="466" y="185" type="line"/>
      <point x="426" y="178"/>
      <point x="356" y="172"/>
      <point x="302" y="172" type="curve" smooth="yes"/>
      <point x="162" y="172"/>
      <point x="152" y="178"/>
      <point x="152" y="244" type="curve" smooth="yes"/>
      <point x="152" y="266" type="line" smooth="yes"/>
      <point x="152" y="332"/>
      <point x="162" y="338"/>
      <point x="302" y="338" type="curve" smooth="yes"/>
      <point x="354" y="338"/>
      <point x="422" y="333"/>
      <point x="461" y="325" type="curve"/>
      <point x="461" y="503" type="line"/>
      <point x="423" y="512"/>
      <point x="362" y="518"/>
      <point x="307" y="518" type="curve" smooth="yes"/>
      <point x="105" y="518"/>
      <point x="70" y="479"/>
      <point x="70" y="259" type="curve" smooth="yes"/>
      <point x="70" y="251" type="line" smooth="yes"/>
      <point x="70" y="31"/>
      <point x="105" y="-8"/>
    </contour>
  </outline>
</glyph>
<glyph name="d" format="2">
  <advance width="620"/>
  <unicode hex="0064"/>
  <anchor x="325" y="0" name="bottom"/>
  <anchor x="479" y="594" name="center"/>
  <anchor x="325" y="510" name="top"/>
  <anchor x="534" y="743" name="topright"/>
  <outline>
    <contour>
      <point x="251" y="-8" type="curve" smooth="yes"/>
      <point x="352" y="-8"/>
      <point x="408" y="14"/>
      <point x="433" y="63" type="curve"/>
      <point x="438" y="63" type="line"/>
      <point x="451" y="0" type="line"/>
      <point x="520" y="0" type="line"/>
      <point x="520" y="743" type="line"/>
      <point x="438" y="743" type="line"/>
      <point x="438" y="447" type="line"/>
      <point x="433" y="447" type="line"/>
      <point x="408" y="496"/>
      <point x="352" y="518"/>
      <point x="251" y="518" type="curve" smooth="yes"/>
      <point x="104" y="518"/>
      <point x="70" y="468"/>
      <point x="70" y="259" type="curve" smooth="yes"/>
      <point x="70" y="251" type="line" smooth="yes"/>
      <point x="70" y="42"/>
      <point x="104" y="-8"/>
    </contour>
    <contour>
      <point x="276" y="172" type="curve" smooth="yes"/>
      <point x="167" y="172"/>
      <point x="152" y="182"/>
      <point x="152" y="238" type="curve" smooth="yes"/>
      <point x="152" y="272" type="line" smooth="yes"/>
      <point x="152" y="328"/>
      <point x="167" y="338"/>
      <point x="276" y="338" type="curve" smooth="yes"/>
      <point x="411" y="338"/>
      <point x="438" y="323"/>
      <point x="438" y="259" type="curve" smooth="yes"/>
      <point x="438" y="251" type="line" smooth="yes"/>
      <point x="438" y="187"/>
      <point x="411" y="172"/>
    </contour>
  </outline>
</glyph>
<glyph name="e" format="2">
  <advance width="566"/>
  <unicode hex="0065"/>
  <anchor x="283" y="0" name="bottom"/>
  <anchor x="509" y="10" name="ogonek"/>
  <anchor x="283" y="510" name="top"/>
  <outline>
    <contour>
      <point x="289" y="-8" type="curve" smooth="yes"/>
      <point x="360" y="-8"/>
      <point x="444" y="0"/>
      <point x="490" y="12" type="curve"/>
      <point x="490" y="170" type="line"/>
      <point x="436" y="159"/>
      <point x="353" y="152"/>
      <point x="289" y="152" type="curve" smooth="yes"/>
      <point x="161" y="152"/>
      <point x="152" y="158"/>
      <point x="152" y="241" type="curve" smooth="yes"/>
      <point x="152" y="269" type="line" smooth="yes"/>
      <point x="152" y="351"/>
      <point x="161" y="358"/>
      <point x="289" y="358" type="curve" smooth="yes"/>
      <point x="412" y="358"/>
      <point x="421" y="351"/>
      <point x="421" y="269" type="curve" smooth="yes"/>
      <point x="421" y="252" type="line"/>
      <point x="454" y="296" type="line"/>
      <point x="110" y="296" type="line"/>
      <point x="110" y="206" type="line"/>
      <point x="503" y="206" type="line"/>
      <point x="503" y="259" type="line" smooth="yes"/>
      <point x="503" y="468"/>
      <point x="462" y="518"/>
      <point x="289" y="518" type="curve" smooth="yes"/>
      <point x="112" y="518"/>
      <point x="70" y="468"/>
      <point x="70" y="259" type="curve" smooth="yes"/>
      <point x="70" y="251" type="line" smooth="yes"/>
      <point x="70" y="41"/>
      <point x="112" y="-8"/>
    </contour>
  </outline>
</glyph>
<glyph name="f" format="2">
  <advance width="378"/>
  <unicode hex="0066"/>
  <anchor x="198" y="0" name="bottom"/>
  <anchor x="198" y="743" name="top"/>
  <outline>
    <contour>
      <point x="141" y="0" type="line"/>
      <point x="223" y="0" type="line"/>
      <point x="223" y="468" type="line" smooth="yes"/>
      <point x="223" y="548"/>
      <point x="247" y="563"/>
      <point x="373" y="563" type="curve"/>
      <point x="373" y="743" type="line"/>
      <point x="192" y="743"/>
      <point x="141" y="682"/>
      <point x="141" y="461" type="curve" smooth="yes"/>
    </contour>
    <contour>
      <point x="20" y="330" type="line"/>
      <point x="158" y="330" type="line"/>
      <point x="158" y="510" type="line"/>
      <point x="20" y="510" type="line"/>
    </contour>
    <contour>
      <point x="207" y="330" type="line"/>
      <point x="373" y="330" type="line"/>
      <point x="372" y="510" type="line"/>
      <point x="207" y="510" type="line"/>
    </contour>
  </outline>
</glyph>
<glyph name="g" format="2">
  <advance width="620"/>
  <unicode hex="0067"/>
  <anchor x="269" y="-200" name="bottom"/>
  <anchor x="465" y="-84" name="center"/>
  <anchor x="269" y="510" name="top"/>
  <outline>
    <contour>
      <point x="314" y="-238" type="curve" smooth="yes"/>
      <point x="481" y="-238"/>
      <point x="520" y="-189"/>
      <point x="520" y="21" type="curve" smooth="yes"/>
      <point x="520" y="510" type="line"/>
      <point x="451" y="510" type="line"/>
      <point x="438" y="447" type="line"/>
      <point x="433" y="447" type="line"/>
      <point x="408" y="496"/>
      <point x="352" y="518"/>
      <point x="251" y="518" type="curve" smooth="yes"/>
      <point x="104" y="518"/>
      <point x="70" y="469"/>
      <point x="70" y="259" type="curve" smooth="yes"/>
      <point x="70" y="251" type="line" smooth="yes"/>
      <point x="70" y="41"/>
      <point x="104" y="-8"/>
      <point x="251" y="-8" type="curve" smooth="yes"/>
      <point x="351" y="-8"/>
      <point x="407" y="14"/>
      <point x="432" y="63" type="curve"/>
      <point x="437" y="63" type="line"/>
      <point x="438" y="12" type="line" smooth="yes"/>
      <point x="438" y="-72"/>
      <point x="430" y="-78"/>
      <point x="314" y="-78" type="curve" smooth="yes"/>
      <point x="240" y="-78"/>
      <point x="178" y="-74"/>
      <point x="118" y="-65" type="curve"/>
      <point x="118" y="-223" type="line"/>
      <point x="187" y="-233"/>
      <point x="247" y="-238"/>
    </contour>
    <contour>
      <point x="276" y="172" type="curve" smooth="yes"/>
      <point x="169" y="172"/>
      <point x="152" y="181"/>
      <point x="152" y="238" type="curve" smooth="yes"/>
      <point x="152" y="272" type="line" smooth="yes"/>
      <point x="152" y="329"/>
      <point x="169" y="338"/>
      <point x="276" y="338" type="curve" smooth="yes"/>
      <point x="410" y="338"/>
      <point x="438" y="325"/>
      <point x="438" y="259" type="curve" smooth="yes"/>
      <point x="438" y="251" type="line" smooth="yes"/>
      <point x="438" y="185"/>
      <point x="410" y="172"/>
    </contour>
  </outline>
</glyph>
<glyph name="j" format="2">
  <advance width="282"/>
  <unicode hex="006A"/>
  <anchor x="141" y="-200" name="bottom"/>
  <anchor x="141" y="716" name="top"/>
  <outline>
    <contour>
      <point x="182" y="510" type="line"/>
      <point x="100" y="510" type="line"/>
      <point x="100" y="75" type="line" smooth="yes"/>
      <point x="100" y="-5"/>
      <point x="79" y="-20"/>
      <point x="-32" y="-20" type="curve"/>
      <point x="-32" y="-200" type="line"/>
      <point x="135" y="-200"/>
      <point x="182" y="-139"/>
      <point x="182" y="82" type="curve" smooth="yes"/>
    </contour>
    <contour>
      <point x="97" y="628" type="line"/>
      <point x="185" y="628" type="line"/>
      <point x="185" y="716" type="line"/>
      <point x="97" y="716" type="line"/>
    </contour>
  </outline>
</glyph>
<glyph name="k" format="2">
  <advance width="637"/>
  <unicode hex="006B"/>
  <anchor x="364" y="0" name="bottom"/>
  <anchor x="364" y="510" name="top"/>
  <outline>
    <contour>
      <point x="182" y="170" type="line"/>
      <point x="412" y="170" type="line"/>
      <point x="526" y="0" type="line"/>
      <point x="622" y="0" type="line"/>
      <point x="448" y="260" type="line"/>
      <point x="614" y="510" type="line"/>
      <point x="350" y="510" type="line"/>
      <point x="244" y="350" type="line"/>
      <point x="182" y="350" type="line"/>
    </contour>
    <contour>
      <point x="100" y="0" type="line"/>
      <point x="182" y="0" type="line"/>
      <point x="182" y="743" type="line"/>
      <point x="100" y="743" type="line"/>
    </contour>
  </outline>
</glyph>
<glyph name="m" format="2">
  <advance width="969"/>
  <unicode hex="006D"/>
  <anchor x="312" y="0" name="bottom"/>
  <anchor x="312" y="510" name="top"/>
  <outline>
    <contour>
      <point x="100" y="0" type="line"/>
      <point x="182" y="0" type="line"/>
      <point x="182" y="136" type="line" smooth="yes"/>
      <point x="182" y="301"/>
      <point x="209" y="338"/>
      <point x="333" y="338" type="curve" smooth="yes"/>
      <point x="429" y="338"/>
      <point x="446" y="312"/>
      <point x="446" y="177" type="curve" smooth="yes"/>
      <point x="446" y="0" type="line"/>
      <point x="528" y="0" type="line"/>
      <point x="528" y="136" type="line" smooth="yes"/>
      <point x="528" y="301"/>
      <point x="555" y="338"/>
      <point x="679" y="338" type="curve" smooth="yes"/>
      <point x="775" y="338"/>
      <point x="792" y="312"/>
      <point x="792" y="177" type="curve" smooth="yes"/>
      <point x="792" y="0" type="line"/>
      <point x="874" y="0" type="line"/>
      <point x="874" y="189" type="line" smooth="yes"/>
      <point x="874" y="467"/>
      <point x="848" y="518"/>
      <point x="701" y="518" type="curve" smooth="yes"/>
      <point x="597" y="518"/>
      <point x="540" y="492"/>
      <point x="508" y="437" type="curve"/>
      <point x="504" y="437" type="line"/>
      <point x="481" y="502"/>
      <point x="438" y="518"/>
      <point x="355" y="518" type="curve" smooth="yes"/>
      <point x="260" y="518"/>
      <point x="207" y="493"/>
      <point x="183" y="437" type="curve"/>
      <point x="179" y="437" type="line"/>
      <point x="170" y="510" type="line"/>
      <point x="100" y="510" type="line"/>
    </contour>
  </outline>
</glyph>
<glyph name="n" format="2">
  <advance width="623"/>
  <unicode hex="006E"/>
  <anchor x="312" y="0" name="bottom"/>
  <anchor x="312" y="510" name="top"/>
  <outline>
    <contour>
      <point x="100" y="0" type="line"/>
      <point x="182" y="0" type="line"/>
      <point x="182" y="150" type="line" smooth="yes"/>
      <point x="182" y="272.2719298245614"/>
      <point x="234.76760563380282" y="338"/>
      <point x="333" y="338" type="qcurve" smooth="yes"/>
      <point x="406.4630177514793" y="338"/>
      <point x="446" y="285.798828125"/>
      <point x="446" y="189" type="qcurve" smooth="yes"/>
      <point x="446" y="0" type="line"/>
      <point x="528" y="0" type="line"/>
      <point x="528" y="201" type="line" smooth="yes"/>
      <point x="528" y="372.2047511312217"/>
      <point x="448.63854679802955" y="518"/>
      <point x="355" y="518" type="qcurve" smooth="yes"/>
      <point x="283.76650943396226" y="518"/>
      <point x="201.0041766109785" y="479.00974542561653"/>
      <point x="183" y="437" type="qcurve"/>
      <point x="179" y="437" type="line"/>
      <point x="170" y="510" type="line"/>
      <point x="100" y="510" type="line"/>
    </contour>
  </outline>
</glyph>
<glyph name="o" format="2">
  <advance width="588"/>
  <unicode hex="006F"/>
  <anchor x="294" y="0" name="bottom"/>
  <anchor x="294" y="255" name="center"/>
  <anchor x="529" y="10" name="ogonek"/>
  <anchor x="294" y="510" name="top"/>
  <anchor x="568" y="510" name="topright"/>
  <outline>
    <contour>
      <point x="294" y="-8" type="curve" smooth="yes"/>
      <point x="475" y="-8"/>
      <point x="518" y="42"/>
      <point x="518" y="251" type="curve" smooth="yes"/>
      <point x="518" y="259" type="line" smooth="yes"/>
      <point x="518" y="468"/>
      <point x="475" y="518"/>
      <point x="294" y="518" type="curve" smooth="yes"/>
      <point x="113" y="518"/>
      <point x="70" y="468"/>
      <point x="70" y="259" type="curve" smooth="yes"/>
      <point x="70" y="251" type="line" smooth="yes"/>
      <point x="70" y="42"/>
      <point x="113" y="-8"/>
    </contour>
    <contour>
      <point x="294" y="172" type="curve" smooth="yes"/>
      <point x="162" y="172"/>
      <point x="152" y="177"/>
      <point x="152" y="246" type="curve" smooth="yes"/>
      <point x="152" y="262" type="line" smooth="yes"/>
      <point x="152" y="330"/>
      <point x="162" y="338"/>
      <point x="294" y="338" type="curve" smooth="yes"/>
      <point x="426" y="338"/>
      <point x="436" y="330"/>
      <point x="436" y="262" type="curve" smooth="yes"/>
      <point x="436" y="246" type="line" smooth="yes"/>
      <point x="436" y="177"/>
      <point x="426" y="172"/>
    </contour>
  </outline>
</glyph>
<glyph name="p" format="2">
  <advance width="620"/>
  <unicode hex="0070"/>
  <anchor x="321" y="0" name="bottom"/>
  <anchor x="155" y="-84" name="center"/>
  <anchor x="321" y="510" name="top"/>
  <outline>
    <contour>
      <point x="100" y="-233" type="line"/>
      <point x="182" y="-233" type="line"/>
      <point x="182" y="63" type="line"/>
      <point x="187" y="63" type="line"/>
      <point x="212" y="14"/>
      <point x="268" y="-8"/>
      <point x="369" y="-8" type="curve" smooth="yes"/>
      <point x="516" y="-8"/>
      <point x="550" y="42"/>
      <point x="550" y="251" type="curve" smooth="yes"/>
      <point x="550" y="259" type="line" smooth="yes"/>
      <point x="550" y="468"/>
      <point x="516" y="518"/>
      <point x="369" y="518" type="curve" smooth="yes"/>
      <point x="268" y="518"/>
      <point x="212" y="496"/>
      <point x="187" y="447" type="curve"/>
      <point x="182" y="447" type="line"/>
      <point x="169" y="510" type="line"/>
      <point x="100" y="510" type="line"/>
    </contour>
    <contour>
      <point x="344" y="172" type="curve" smooth="yes"/>
      <point x="209" y="172"/>
      <point x="182" y="187"/>
      <point x="182" y="251" type="curve" smooth="yes"/>
      <point x="182" y="259" type="line" smooth="yes"/>
      <point x="182" y="323"/>
      <point x="209" y="338"/>
      <point x="344" y="338" type="curve" smooth="yes"/>
      <point x="453" y="338"/>
      <point x="468" y="328"/>
      <point x="468" y="272" type="curve" smooth="yes"/>
      <point x="468" y="238" type="line" smooth="yes"/>
      <point x="468" y="182"/>
      <point x="453" y="172"/>
    </contour>
  </outline>
</glyph>
<glyph name="q" format="2">
  <advance width="620"/>
  <unicode hex="0071"/>
  <anchor x="325" y="0" name="bottom"/>
  <anchor x="465" y="-84" name="center"/>
  <anchor x="325" y="510" name="top"/>
  <outline>
    <contour>
      <point x="438" y="-233" type="line"/>
      <point x="520" y="-233" type="line"/>
      <point x="520" y="510" type="line"/>
      <point x="451" y="510" type="line"/>
      <point x="438" y="447" type="line"/>
      <point x="433" y="447" type="line"/>
      <point x="408" y="496"/>
      <point x="352" y="518"/>
      <point x="251" y="518" type="curve" smooth="yes"/>
      <point x="104" y="518"/>
      <point x="70" y="468"/>
      <point x="70" y="259" type="curve" smooth="yes"/>
      <point x="70" y="251" type="line" smooth="yes"/>
      <point x="70" y="42"/>
      <point x="104" y="-8"/>
      <point x="251" y="-8" type="curve" smooth="yes"/>
      <point x="352" y="-8"/>
      <point x="408" y="14"/>
      <point x="433" y="63" type="curve"/>
      <point x="438" y="63" type="line"/>
    </contour>
    <contour>
      <point x="276" y="172" type="curve" smooth="yes"/>
      <point x="167" y="172"/>
      <point x="152" y="182"/>
      <point x="152" y="238" type="curve" smooth="yes"/>
      <point x="152" y="272" type="line" smooth="yes"/>
      <point x="152" y="328"/>
      <point x="167" y="338"/>
      <point x="276" y="338" type="curve" smooth="yes"/>
      <point x="411" y="338"/>
      <point x="438" y="323"/>
      <point x="438" y="259" type="curve" smooth="yes"/>
      <point x="438" y="251" type="line" smooth="yes"/>
      <point x="438" y="187"/>
      <point x="411" y="172"/>
    </contour>
  </outline>
</glyph>
<glyph name="r" format="2">
  <advance width="399"/>
  <unicode hex="0072"/>
  <anchor x="207" y="0" name="bottom"/>
  <anchor x="207" y="510" name="top"/>
  <outline>
    <contour>
      <point x="100" y="0" type="line"/>
      <point x="182" y="0" type="line"/>
      <point x="182" y="136" type="line" smooth="yes"/>
      <point x="182" y="301"/>
      <point x="209" y="338"/>
      <point x="333" y="338" type="curve" smooth="yes"/>
      <point x="370" y="338" type="line"/>
      <point x="370" y="518" type="line"/>
      <point x="266" y="518"/>
      <point x="210" y="493"/>
      <point x="183" y="437" type="curve"/>
      <point x="179" y="437" type="line"/>
      <point x="170" y="510" type="line"/>
      <point x="100" y="510" type="line"/>
    </contour>
  </outline>
</glyph>
<glyph name="s" format="2">
  <advance width="501"/>
  <unicode hex="0073"/>
  <anchor x="251" y="0" name="bottom"/>
  <anchor x="251" y="510" name="top"/>
  <outline>
    <contour>
      <point x="238" y="-8" type="curve" smooth="yes"/>
      <point x="392" y="-8"/>
      <point x="436" y="26"/>
      <point x="436" y="145" type="curve" smooth="yes"/>
      <point x="436" y="249"/>
      <point x="407" y="286"/>
      <point x="322" y="295" type="curve" smooth="yes"/>
      <point x="171" y="309" type="line" smooth="yes"/>
      <point x="153" y="311"/>
      <point x="147" y="318"/>
      <point x="147" y="332" type="curve" smooth="yes"/>
      <point x="147" y="352"/>
      <point x="158" y="358"/>
      <point x="197" y="358" type="curve" smooth="yes"/>
      <point x="279" y="358"/>
      <point x="376" y="353"/>
      <point x="414" y="346" type="curve"/>
      <point x="414" y="508" type="line"/>
      <point x="381" y="514"/>
      <point x="327" y="518"/>
      <point x="280" y="518" type="curve" smooth="yes"/>
      <point x="111" y="518"/>
      <point x="65" y="485"/>
      <point x="65" y="367" type="curve" smooth="yes"/>
      <point x="65" y="266"/>
      <point x="95" y="227"/>
      <point x="177" y="218" type="curve" smooth="yes"/>
      <point x="328" y="204" type="line" smooth="yes"/>
      <point x="347" y="202"/>
      <point x="354" y="196"/>
      <point x="354" y="178" type="curve" smooth="yes"/>
      <point x="354" y="158"/>
      <point x="343" y="152"/>
      <point x="304" y="152" type="curve" smooth="yes"/>
      <point x="216" y="152"/>
      <point x="112" y="157"/>
      <point x="70" y="164" type="curve"/>
      <point x="70" y="2" type="line"/>
      <point x="109" y="-4"/>
      <point x="179" y="-8"/>
    </contour>
  </outline>
</glyph>
<glyph name="v" format="2">
  <advance width="650"/>
  <unicode hex="0076"/>
  <anchor x="427" y="0" name="bottom"/>
  <anchor x="427" y="510" name="top"/>
  <outline>
    <contour>
      <point x="217" y="0" type="line"/>
      <point x="436" y="0" type="line"/>
      <point x="625" y="510" type="line"/>
      <point x="392" y="510" type="line"/>
      <point x="260" y="105" type="line"/>
      <point x="256" y="105" type="line"/>
      <point x="110" y="510" type="line"/>
      <point x="25" y="510" type="line"/>
    </contour>
  </outline>
</glyph>
<glyph name="w" format="2">
  <advance width="839"/>
  <unicode hex="0077"/>
  <anchor x="-296" y="0" name="bottom"/>
  <anchor x="-296" y="510" name="top"/>
  <outline>
    <contour>
      <point x="125" y="0" type="line"/>
      <point x="338" y="0" type="line"/>
      <point x="411" y="380" type="line"/>
      <point x="500" y="0" type="line"/>
      <point x="713" y="0" type="line"/>
      <point x="814" y="510" type="line"/>
      <point x="600" y="510" type="line"/>
      <point x="536" y="147" type="line"/>
      <point x="532" y="147" type="line"/>
      <point x="447" y="510" type="line"/>
      <point x="247" y="510" type="line"/>
      <point x="182" y="147" type="line"/>
      <point x="178" y="147" type="line"/>
      <point x="104" y="510" type="line"/>
      <point x="25" y="510" type="line"/>
    </contour>
  </outline>
</glyph>
<glyph name="x" format="2">
  <advance width="583"/>
  <unicode hex="0078"/>
  <anchor x="288" y="0" name="bottom"/>
  <anchor x="288" y="510" name="top"/>
  <outline>
    <contour>
      <point x="310" y="0" type="line"/>
      <point x="563" y="0" type="line"/>
      <point x="273" y="510" type="line"/>
      <point x="20" y="510" type="line"/>
    </contour>
    <contour>
      <point x="20" y="0" type="line"/>
      <point x="129" y="0" type="line"/>
      <point x="563" y="510" type="line"/>
      <point x="454" y="510" type="line"/>
    </contour>
  </outline>
</glyph>
<glyph name="y" format="2">
  <advance width="624"/>
  <unicode hex="0079"/>
  <anchor x="301" y="0" name="bottom"/>
  <anchor x="301" y="510" name="top"/>
  <outline>
    <contour>
      <point x="316" y="-238" type="curve" smooth="yes"/>
      <point x="498" y="-238"/>
      <point x="524" y="-190"/>
      <point x="524" y="51" type="curve" smooth="yes"/>
      <point x="524" y="510" type="line"/>
      <point x="442" y="510" type="line"/>
      <point x="442" y="251" type="line" smooth="yes"/>
      <point x="442" y="185"/>
      <point x="426" y="172"/>
      <point x="292" y="172" type="curve" smooth="yes"/>
      <point x="185" y="172"/>
      <point x="177" y="181"/>
      <point x="177" y="238" type="curve" smooth="yes"/>
      <point x="177" y="510" type="line"/>
      <point x="95" y="510" type="line"/>
      <point x="95" y="251" type="line" smooth="yes"/>
      <point x="95" y="41"/>
      <point x="119" y="-8"/>
      <point x="266" y="-8" type="curve" smooth="yes"/>
      <point x="366" y="-8"/>
      <point x="411" y="14"/>
      <point x="436" y="63" type="curve"/>
      <point x="441" y="63" type="line"/>
      <point x="442" y="31" type="line" smooth="yes"/>
      <point x="442" y="-52"/>
      <point x="434" y="-58"/>
      <point x="314" y="-58" type="curve" smooth="yes"/>
      <point x="250" y="-58"/>
      <point x="172" y="-51"/>
      <point x="125" y="-40" type="curve"/>
      <point x="125" y="-218" type="line"/>
      <point x="169" y="-230"/>
      <point x="242" y="-238"/>
    </contour>
  </outline>
</glyph>
